PathFileType	4	(X/Y/Z)	C:/Users/opensim2020/Desktop/walking_exp_matlab/subject01_walking11_straight_02.trc	
DataRate	CameraRate	NumFrames	NumMarkers	Units	OrigDataRate	OrigDataStartFrame	OrigNumFrames	
100.00	100.00	8	44	mm	100.00	2007	266	
Frame#	Time	LFHD			RFHD			LBHD			RBHD			C7			T10			CLAV			STRN			RBAK			LSHO			LUPA			LELB			LFRM			LWRA			LWRB			LFIN			RSHO			RUPA			RELB			RFRM			RWRA			RWRB			RFIN			LASI			RASI			LPSI			RPSI			LTHI			LKNE			LTIB			LANK			LHEE			LTOE			RTHI			RKNE			RTIB			RANK			RHEE			RTOE			*39			*40			*41			*42			*43			
		X1	Y1	Z1	X2	Y2	Z2	X3	Y3	Z3	X4	Y4	Z4	X5	Y5	Z5	X6	Y6	Z6	X7	Y7	Z7	X8	Y8	Z8	X9	Y9	Z9	X10	Y10	Z10	X11	Y11	Z11	X12	Y12	Z12	X13	Y13	Z13	X14	Y14	Z14	X15	Y15	Z15	X16	Y16	Z16	X17	Y17	Z17	X18	Y18	Z18	X19	Y19	Z19	X20	Y20	Z20	X21	Y21	Z21	X22	Y22	Z22	X23	Y23	Z23	X24	Y24	Z24	X25	Y25	Z25	X26	Y26	Z26	X27	Y27	Z27	X28	Y28	Z28	X29	Y29	Z29	X30	Y30	Z30	X31	Y31	Z31	X32	Y32	Z32	X33	Y33	Z33	X34	Y34	Z34	X35	Y35	Z35	X36	Y36	Z36	X37	Y37	Z37	X38	Y38	Z38	X39	Y39	Z39	X40	Y40	Z40	X41	Y41	Z41	X42	Y42	Z42	X43	Y43	Z43	X44	Y44	Z44	

67	0.660	-1057.47632	459.79495	1673.65637	-1165.39038	420.74628	1674.66101	-1092.14844	574.94897	1641.59619	-1207.76880	537.51178	1643.01660	-1127.06177	622.65546	1442.13000	-1133.48157	662.13318	1148.44031	-1113.80847	482.28265	1370.91016	-1101.87646	442.49295	1215.66138	-1204.50562	675.94757	1245.15625	-958.91815	555.49042	1408.35303	-878.38538	605.44238	1226.40063	-881.02759	628.17053	1076.92810	-847.72058	601.49512	968.51849	-851.59406	528.35394	848.38751	-834.80444	585.91125	847.35095	-815.89844	542.41687	776.05359	-1269.25806	536.48950	1398.36890	-1371.65466	588.40515	1198.04065	-1376.17603	583.73505	1073.23914	-1409.23340	543.75836	959.85132	-1395.02820	448.70447	854.34656	-1432.76416	492.92761	850.20782	-1431.30518	446.88928	776.56091	-1007.01270	503.37558	943.36230	-1223.40332	482.61279	937.59766	-1074.39111	683.19470	953.30731	-1219.03601	668.75897	955.24377	-936.05847	465.70630	624.57556	-945.86230	449.50146	491.23929	-946.78046	559.53619	339.94406	-1001.22198	661.77386	149.20091	-1064.19409	702.16089	130.39272	-961.58142	553.54291	63.22172	-1269.47119	535.36615	603.10138	-1236.85620	528.53271	445.44162	-1245.33276	588.46722	278.54297	-1190.83386	630.55566	78.02180	-1145.66174	685.91602	42.06939	-1177.09253	491.90482	38.23778	-1146.13342	433.07706	1710.23376	-3101.97778	1973.06421	1023.59363	-3140.69458	2012.53906	1022.08038						 
68	0.670	-1057.04431	452.85986	1673.36365	-1164.82556	413.78738	1674.53760	-1092.78442	567.90845	1641.52747	-1207.36792	530.49072	1642.99548	-1127.10132	615.83606	1441.99707	-1133.90027	655.38055	1148.36438	-1113.88452	475.42010	1370.66797	-1102.00549	435.72565	1215.43042	-1204.86768	669.03632	1245.09558	-958.98682	548.74109	1408.07141	-878.58911	599.39069	1226.05884	-881.53931	622.83167	1076.87097	-848.22107	597.30536	968.19867	-852.10956	525.47748	847.34100	-835.17395	583.10693	846.97253	-816.31067	540.52405	775.17303	-1269.27148	529.66949	1398.46582	-1371.89233	581.65387	1198.03833	-1376.94775	576.40759	1073.32556	-1409.98572	535.27222	960.24133	-1395.25256	439.25241	855.65936	-1433.33691	483.23831	851.16541	-1431.91833	436.38040	778.08868	-1007.24567	496.76550	943.36438	-1223.69592	476.31561	937.00177	-1074.50366	677.14899	953.49835	-1219.05139	662.34515	955.27179	-935.87811	456.80649	625.46173	-946.04779	439.70941	492.09729	-945.84637	545.26801	336.88800	-999.24677	639.80341	141.83844	-1062.14502	678.85950	120.72650	-958.67657	527.84998	61.00928	-1269.53821	531.32507	602.65765	-1236.98132	526.16718	445.16071	-1245.24316	587.00745	278.39890	-1190.73853	630.32172	78.15331	-1145.60010	685.57581	42.43586	-1177.14636	491.68481	38.29316	-1145.66321	426.03323	1710.27478	-3101.88965	1973.02649	1023.35266	-3140.75391	2012.37854	1022.04102						 
69	0.680	-1056.42615	446.05289	1673.04504	-1164.24194	406.82709	1674.41418	-1091.87097	561.26813	1641.27893	-1206.96326	523.54901	1642.96924	-1127.04407	609.00354	1441.77588	-1134.24780	648.58173	1148.16797	-1113.90430	468.67035	1370.42603	-1102.19067	428.87338	1215.12854	-1205.23364	662.10858	1244.99829	-958.97272	541.92218	1407.63306	-878.60193	593.44183	1225.77014	-882.07941	617.59564	1076.80652	-848.65045	593.11719	967.93640	-852.57660	522.54083	846.16589	-835.55286	580.11847	846.49908	-816.76556	538.41675	774.14044	-1269.27734	522.81335	1398.47461	-1372.19067	574.87286	1198.10278	-1377.61707	568.99493	1073.30774	-1410.56177	526.72937	960.54669	-1395.28796	429.89047	856.87469	-1433.50586	473.58139	851.96222	-1432.16455	425.95703	779.62085	-1007.35217	490.35992	943.17645	-1223.68359	470.38467	935.92316	-1074.43652	670.65540	953.57617	-1219.00732	655.99200	955.23511	-935.42358	448.10510	626.15503	-946.11090	430.11624	492.68933	-944.93689	530.76917	333.85675	-996.93677	617.35553	134.52892	-1059.88013	655.56091	111.40491	-955.52509	502.25500	59.00233	-1269.44727	527.37256	602.27222	-1236.86987	523.68756	444.39029	-1245.27869	585.68793	278.33319	-1190.71753	630.07959	78.26843	-1145.51721	685.44086	42.70756	-1177.06494	491.71021	38.15405	-1144.90625	419.09210	1710.10608	-3101.91992	1973.06689	1023.50757	-3140.67896	2012.50000	1022.11890						 
70	0.690	-1055.81104	439.24561	1672.67200	-1163.60364	399.93948	1674.30835	-1090.94775	554.21539	1640.74646	-1206.40710	516.54987	1642.86902	-1127.01233	602.09698	1441.55664	-1134.49451	641.77161	1148.02783	-1113.83618	461.77420	1370.13647	-1102.24146	422.01697	1214.82031	-1205.48938	655.13306	1244.83618	-958.93927	535.14252	1407.18164	-878.99402	587.00922	1225.28943	-882.41119	612.02039	1076.53027	-848.98114	588.73322	967.59180	-852.85516	519.51550	845.07574	-835.83075	576.98932	846.05042	-817.06378	536.08124	773.08453	-1269.34949	515.84161	1398.45044	-1372.60693	567.95044	1198.16296	-1378.33862	561.49011	1073.29211	-1411.19629	518.09442	960.90637	-1395.17993	420.63940	858.13263	-1433.95459	463.90167	852.75092	-1432.45325	415.62012	780.99829	-1007.35303	483.76321	943.07208	-1223.74646	464.04141	935.28125	-1074.21411	664.10132	953.55811	-1218.73755	649.52875	955.04254	-935.23285	440.17099	626.69000	-946.09949	421.19122	493.31833	-943.70227	516.32721	330.64825	-994.45428	594.33636	127.44794	-1057.28894	631.59082	102.31234	-952.67053	476.37640	57.10213	-1269.47388	523.47491	601.84656	-1236.96179	521.60968	444.21964	-1245.39392	584.39252	278.29132	-1190.73352	629.87341	78.46574	-1145.48340	685.42572	43.02024	-1176.99805	491.57794	38.07504	-1144.14685	412.29492	1709.78833	-3101.95776	1973.14063	1023.61169	-3140.84570	2012.48462	1022.02478						 
71	0.700	-1055.19421	432.49213	1672.30359	-1162.87329	393.02835	1674.14795	-1091.05981	547.66119	1640.74121	-1205.97156	509.66733	1642.82117	-1126.98157	595.22150	1441.27954	-1134.55481	634.87659	1147.77759	-1113.74658	454.87476	1369.78625	-1102.22034	415.13013	1214.50928	-1205.67871	648.14227	1244.60889	-958.80786	528.40857	1406.73535	-879.10236	580.84131	1224.92114	-882.67493	606.52832	1076.41760	-849.29272	584.28455	967.25586	-853.08868	516.21033	844.00848	-836.07996	573.84375	845.63782	-817.25769	533.77441	772.26068	-1269.13940	508.85938	1398.36731	-1372.83875	560.88812	1198.11511	-1378.92932	553.91608	1073.20959	-1411.54736	509.52133	961.08722	-1395.06152	411.38834	859.18951	-1434.06189	454.34628	853.48492	-1432.44434	405.38852	782.27075	-1007.17017	476.96524	942.93542	-1223.81299	457.59790	934.69525	-1073.87683	657.43872	953.39899	-1218.49243	643.23737	954.86017	-934.61414	432.03522	627.07037	-946.01965	412.81683	493.67468	-942.31232	501.82065	327.40717	-991.86218	570.97357	120.46792	-1054.67737	606.78802	93.53935	-949.62854	450.12158	55.34450	-1269.34424	519.69537	601.41821	-1237.22913	519.45270	443.73215	-1245.54944	583.31183	278.38223	-1190.90881	629.90326	78.69426	-1145.42334	685.30695	43.32003	-1177.19568	491.76855	37.91735	-1143.38623	405.41449	1709.74072	-3101.94678	1973.06946	1023.95020	-3140.72095	2012.47144	1022.09717						 
72	0.710	-1054.36841	425.80032	1671.90808	-1161.99426	386.20096	1673.95728	-1090.39880	540.84595	1640.33679	-1205.29211	502.67291	1642.68030	-1126.87732	588.23279	1440.96741	-1134.51868	627.96228	1147.54297	-1113.60608	447.91150	1369.42932	-1102.16260	408.15674	1214.11377	-1205.81616	641.08356	1244.35095	-958.69501	521.55872	1406.22498	-879.11328	574.46796	1224.43188	-882.88959	600.94617	1076.21033	-849.41718	579.75903	966.92578	-853.17535	512.89520	842.92773	-836.41058	570.41541	845.10822	-817.34875	531.13300	771.26959	-1269.06677	501.73499	1398.27527	-1372.87671	553.68597	1197.96960	-1379.50842	546.33484	1073.11890	-1412.06116	500.92203	961.41974	-1394.83838	402.29654	860.07965	-1434.26855	445.01901	854.21234	-1432.37695	395.28323	783.35486	-1006.99323	470.35928	942.61609	-1223.81567	451.19547	934.07495	-1073.48621	650.83368	953.14862	-1218.09082	636.88989	954.61682	-934.15106	424.65408	627.19080	-945.77063	404.66510	493.80334	-940.81006	487.39294	324.25003	-989.12018	547.25330	113.85825	-1051.93323	582.19476	85.55563	-946.88550	423.47461	53.55790	-1269.22131	515.97620	601.10876	-1237.26624	517.39795	443.24612	-1245.79749	582.25018	278.49179	-1190.93677	629.76697	78.82780	-1145.46545	685.34766	43.74320	-1177.28113	491.79425	37.99339	-1142.47388	398.63785	1709.38269	-3101.96704	1973.14758	1023.56885	-3140.73633	2012.55823	1022.12030						 
73	0.720	-1053.57959	419.10291	1671.47522	-1161.15051	379.31421	1673.82080	-1089.77966	534.09735	1639.90161	-1204.67542	495.75473	1642.49915	-1126.71582	581.26428	1440.58826	-1134.34680	621.05841	1147.23401	-1113.35034	441.00534	1368.99512	-1102.04187	401.15988	1213.73645	-1205.83728	633.97369	1244.04175	-958.48602	514.82001	1405.76953	-879.10156	568.14545	1223.99707	-883.12628	595.13855	1075.88477	-849.54468	574.98041	966.57263	-853.08490	509.34668	841.95514	-836.31982	566.91461	844.75732	-817.43280	528.46027	770.37958	-1268.76392	494.64114	1398.01367	-1373.19971	546.28406	1197.99438	-1379.97314	538.67108	1073.01050	-1412.39209	492.35287	961.58398	-1394.54480	393.29019	860.85132	-1434.32056	435.50531	854.67609	-1432.19800	385.43088	784.33545	-1006.77814	463.61539	942.33722	-1223.74890	444.81656	933.44055	-1072.88818	644.15662	952.83221	-1217.47253	630.56525	954.18280	-933.57605	417.51459	627.11774	-945.45184	396.90930	493.77286	-939.13098	473.12595	321.13162	-986.03253	523.28827	107.76516	-1048.55310	557.46906	78.33298	-944.29535	396.72443	52.59254	-1268.96802	512.37469	600.81500	-1237.40613	515.47736	443.25250	-1245.92273	581.10876	278.58194	-1190.90540	629.69788	79.13285	-1145.48047	685.28925	44.23635	-1177.27795	491.79831	37.86905	-1141.55078	391.80457	1709.32056	-3101.85864	1973.22571	1023.48181	-3140.74561	2012.51770	1021.94183						 
74	0.730	-1052.63843	412.39392	1671.12341	-1160.23694	372.47211	1673.63281	-1089.17139	527.26398	1639.52051	-1204.00256	488.79480	1642.31494	-1126.53125	574.32721	1440.19861	-1134.04077	614.00873	1146.84802	-1113.03918	434.02264	1368.68262	-1101.91150	394.12338	1213.40344	-1205.75391	626.88074	1243.69812	-958.27765	508.09039	1405.25208	-878.82446	562.00195	1223.63623	-883.10638	589.46271	1075.74060	-849.51483	570.15631	966.25500	-853.00269	505.66739	841.00519	-836.29181	563.25122	844.37805	-817.40436	525.49451	769.49939	-1268.49353	487.51816	1397.73572	-1373.11365	538.78552	1197.82471	-1380.30737	530.98560	1072.90588	-1412.57898	483.86197	961.68298	-1394.19177	384.38809	861.52478	-1434.32288	426.31732	855.20856	-1431.88904	375.77194	785.21075	-1006.39166	456.61853	942.08948	-1223.59534	438.46237	932.70435	-1072.19958	637.38483	952.48486	-1216.84070	624.29742	953.88696	-932.95410	410.89594	626.82373	-944.96899	389.53204	493.54703	-937.14551	458.79553	318.15805	-982.78656	499.00555	102.35690	-1045.22302	532.24384	71.39629	-941.98669	370.09711	52.38631	-1268.89441	508.80490	600.59296	-1237.45496	513.38550	442.78171	-1245.88879	579.83600	278.55414	-1190.99658	629.60034	79.43395	-1145.57263	685.29193	44.82116	-1177.24329	491.75909	37.81924	-1140.51563	385.11810	1708.90320	-3101.91992	1973.08325	1023.39032	-3140.72168	2012.46838	1022.05334						 
